<?xml version="1.0" standalone="no"?>
<!DOCTYPE svg PUBLIC "-//W3C//DTD SVG 20010904//EN"
 "http://www.w3.org/TR/2001/REC-SVG-20010904/DTD/svg10.dtd">
<svg version="1.0" xmlns="http://www.w3.org/2000/svg"
 width="640.000000pt" height="640.000000pt" viewBox="0 0 640.000000 640.000000"
 preserveAspectRatio="xMidYMid meet">
<metadata>
Created by potrace 1.11, written by Peter Selinger 2001-2013
</metadata>
<g transform="translate(0.000000,640.000000) scale(0.100000,-0.100000)"
fill="#000000" stroke="none">
<path d="M1538 6380 c49 -30 131 -63 313 -124 196 -66 235 -82 245 -98 5 -8 2
-9 -10 -5 -32 13 -210 19 -258 9 -43 -8 -52 -6 -116 26 -61 29 -84 35 -163 40
-68 4 -90 2 -85 -7 4 -6 18 -11 31 -11 13 0 57 -13 98 -30 42 -16 88 -30 104
-30 15 0 48 -11 73 -23 73 -38 294 -162 326 -184 16 -12 75 -51 132 -87 56
-37 102 -70 102 -74 0 -13 122 -133 191 -188 37 -29 86 -61 109 -70 22 -9 39
-18 37 -21 -2 -2 -58 2 -123 8 -83 8 -142 20 -194 39 -87 33 -326 92 -455 114
-256 43 -421 58 -627 57 -217 0 -271 -8 -348 -47 -25 -13 -78 -27 -121 -32
-71 -9 -130 -30 -144 -52 -3 -5 19 2 50 16 61 28 86 27 165 -9 36 -17 67 -21
150 -22 151 -2 372 -14 465 -26 74 -9 232 -47 292 -70 l26 -10 -24 -25 c-16
-17 -20 -27 -12 -32 6 -4 -40 -8 -102 -10 -101 -3 -114 -1 -124 15 -6 10 -11
13 -11 7 0 -6 21 -31 46 -55 25 -24 50 -54 54 -66 6 -15 21 -24 47 -28 21 -3
72 -13 114 -21 42 -8 85 -14 97 -14 12 0 61 -11 109 -24 48 -13 115 -29 148
-36 114 -23 432 -126 422 -137 -3 -2 -36 3 -73 12 -143 34 -412 30 -435 -6 -3
-6 -39 -13 -80 -16 -73 -6 -109 -16 -109 -31 0 -5 17 -6 37 -4 20 3 66 0 102
-6 36 -6 109 -15 161 -20 52 -5 147 -23 210 -39 63 -17 169 -43 235 -58 192
-45 738 -226 769 -255 35 -34 -220 -26 -394 11 -63 13 -223 6 -297 -14 -33 -9
-51 -20 -65 -42 -10 -16 -18 -33 -18 -36 0 -6 92 -29 120 -30 8 0 89 -12 180
-26 91 -13 182 -27 203 -30 32 -5 37 -9 37 -33 0 -49 50 -203 87 -270 20 -36
58 -87 83 -115 25 -27 64 -75 85 -105 37 -52 53 -69 65 -70 5 0 7 42 12 353 1
97 5 177 7 177 2 0 58 -9 125 -21 111 -18 127 -24 188 -65 74 -49 119 -68 203
-83 52 -10 61 -9 107 15 48 24 50 24 64 7 12 -16 15 -32 18 -99 1 -10 -15 -23
-39 -33 -133 -53 -208 -122 -326 -300 -38 -57 -82 -112 -99 -122 -75 -46 -121
-241 -76 -327 9 -17 16 -49 16 -70 0 -26 7 -45 19 -56 48 -44 111 18 111 110
0 122 27 181 158 350 59 76 91 106 192 179 l122 87 21 -20 c12 -11 54 -40 93
-64 l72 -44 -50 -54 c-155 -172 -278 -420 -278 -562 0 -88 46 -238 73 -238 4
0 3 9 -3 19 -12 23 -12 97 0 126 7 19 8 18 19 -7 14 -36 43 -43 171 -42 115 2
180 15 201 41 13 15 12 15 -8 4 -18 -9 -34 -8 -79 5 -88 25 -257 102 -252 113
2 3 25 46 53 95 l50 88 7 -42 c13 -77 54 -120 167 -177 64 -33 82 -37 147 -38
45 0 78 5 85 13 7 6 22 12 32 12 16 0 14 5 -12 29 -41 38 -84 133 -89 196 -3
33 3 75 17 121 25 85 39 106 67 98 19 -5 20 -10 13 -52 -4 -26 -8 -80 -8 -121
-1 -61 3 -81 25 -122 17 -31 36 -51 54 -58 27 -9 28 -8 40 35 12 42 12 45 -14
69 -38 35 -34 78 16 191 23 52 45 94 50 94 13 0 9 -18 -11 -58 -22 -43 -20
-112 4 -148 21 -33 98 -83 137 -90 28 -5 25 -2 -19 19 -53 26 -77 53 -88 100
-7 26 -6 27 20 17 33 -13 60 1 69 35 6 22 26 36 26 17 0 -7 55 -35 78 -38 24
-4 26 -13 13 -62 -7 -30 -9 -57 -3 -73 14 -40 -4 -79 -23 -49 -3 6 -11 10 -17
10 -7 0 -7 -4 0 -12 5 -7 13 -29 17 -48 l8 -35 -49 40 c-27 22 -52 44 -56 50
-5 6 -8 4 -8 -5 0 -8 25 -37 55 -63 30 -27 55 -55 55 -63 0 -20 -16 -18 -25 4
-6 16 -7 16 -17 -2 -13 -24 19 -70 53 -74 35 -5 59 -31 59 -62 0 -51 56 -182
88 -206 8 -6 15 -25 16 -42 1 -27 5 -32 27 -32 24 0 59 -26 59 -44 0 -3 15
-20 34 -36 19 -17 33 -38 32 -48 -1 -12 8 -18 27 -20 28 -3 77 -41 77 -59 0
-6 14 -24 30 -41 17 -18 30 -38 30 -45 0 -8 11 -24 25 -37 13 -12 22 -27 19
-31 -2 -4 8 -16 23 -26 15 -10 31 -22 34 -27 4 -5 12 -5 19 -1 9 5 37 -18 85
-68 40 -43 80 -77 89 -77 25 0 124 -68 131 -90 3 -10 17 -25 30 -34 30 -20 32
-36 4 -36 -12 0 -19 -5 -16 -12 3 -8 19 -12 45 -10 22 1 43 -2 47 -8 3 -5 14
-10 23 -10 18 0 134 -95 158 -129 9 -12 19 -21 25 -21 13 0 12 1467 -1 1475
-5 3 -10 15 -10 26 0 10 5 19 10 19 6 0 10 23 10 51 0 41 -5 56 -22 72 l-23
20 22 -6 23 -5 0 594 0 594 -41 0 c-26 0 -38 4 -34 11 4 6 -2 13 -14 16 -11 3
-18 9 -15 15 3 5 15 6 27 3 15 -4 18 -3 9 3 -7 4 -33 7 -57 6 -27 -2 -43 1
-39 7 3 5 15 7 27 4 20 -5 20 -5 4 5 -10 7 -28 9 -40 6 -22 -5 -22 -5 -2 11
19 15 19 15 -9 9 -23 -6 -27 -4 -23 8 6 15 -9 21 -35 17 -5 0 -8 7 -8 17 0 13
-2 14 -9 3 -7 -11 -9 -11 -14 0 -4 10 -6 9 -6 -3 -1 -10 -5 -18 -11 -18 -12 0
-13 11 0 30 8 13 14 13 54 -2 61 -23 65 -11 9 26 -25 17 -58 39 -72 48 -14 10
-39 18 -56 19 l-30 1 33 9 c17 5 32 12 32 14 0 5 -26 1 -75 -12 -16 -4 -17 -3
-8 7 6 7 49 15 101 18 88 5 91 4 135 -26 26 -19 49 -44 55 -62 6 -16 16 -30
22 -30 8 0 8 6 0 20 -6 11 -8 24 -5 29 3 5 -20 32 -50 59 -65 59 -102 69 -210
53 -38 -6 -73 -11 -76 -11 -8 0 18 77 31 93 54 67 61 77 48 77 -21 0 -58 -29
-80 -64 -11 -17 -17 -22 -12 -11 18 46 0 142 -28 151 -22 7 -21 9 90 101 49
41 43 53 -25 53 -43 0 -57 13 -27 24 9 3 27 6 40 6 33 0 22 16 -16 23 -23 5
-30 12 -30 30 0 13 -11 41 -25 61 l-24 36 32 17 c79 42 150 73 167 73 10 0 21
4 24 9 13 21 -144 56 -207 46 -60 -10 -122 -49 -156 -98 -16 -23 -60 -76 -99
-117 -62 -66 -69 -72 -67 -47 2 18 -3 32 -16 40 -10 8 -28 35 -40 62 -16 37
-23 44 -31 34 -8 -11 -9 -10 -4 4 8 26 -3 47 -22 39 -15 -5 -15 -4 1 12 23 23
22 58 -2 73 -15 10 -21 10 -24 0 -16 -37 -3 44 23 153 l31 125 54 45 55 45 -7
54 c-11 93 -57 116 -115 58 -25 -24 -40 -55 -59 -122 -52 -174 -122 -366 -131
-353 -6 10 -8 10 -8 0 0 -10 -8 -9 -30 5 -16 9 -30 26 -30 36 0 10 -6 25 -14
33 -13 12 -15 10 -19 -18 -2 -18 -4 21 -5 87 0 85 5 137 17 180 16 57 16 63
-2 120 -11 37 -17 77 -14 104 l5 43 -42 -7 c-22 -4 -73 -10 -113 -14 -56 -5
-69 -4 -61 6 5 7 7 21 3 33 l-6 20 -1435 0 -1435 0 27 -35 c14 -19 25 -35 23
-35 -14 1 -134 42 -158 55 -25 12 -74 15 -273 15 l-243 0 33 -20z m4024 -197
c-25 -80 -33 -93 -27 -46 6 45 24 93 35 93 4 0 1 -21 -8 -47z m337 -624 c6
-18 11 -43 11 -56 0 -22 -1 -23 -24 -8 -30 20 -46 13 -101 -43 -40 -40 -45
-43 -45 -23 0 15 24 48 67 92 36 38 70 69 74 69 4 0 12 -14 18 -31z m-49 -113
c0 -3 -4 -8 -10 -11 -5 -3 -10 -1 -10 4 0 6 5 11 10 11 6 0 10 -2 10 -4z
m-134 -38 c-9 -12 -16 -19 -16 -15 0 11 24 47 28 42 2 -2 -3 -14 -12 -27z
m-1032 -181 c-13 -35 -23 -13 -15 33 1 2 6 -1 11 -6 6 -6 8 -18 4 -27z m96
-17 c13 -8 13 -10 -2 -10 -9 0 -20 5 -23 10 -8 13 5 13 25 0z m1170 -104 c0
-2 -7 -7 -16 -10 -8 -3 -12 -2 -9 4 6 10 25 14 25 6z m45 -144 c-3 -3 -11 0
-18 7 -9 10 -8 11 6 5 10 -3 15 -9 12 -12z m-1513 -773 c-4 -3 -26 -13 -49
-22 -32 -13 -44 -13 -51 -4 -9 11 -16 42 -13 58 0 4 28 0 61 -9 33 -9 56 -19
52 -23z m65 -132 c8 -17 7 -29 -3 -48 -7 -13 -13 -34 -14 -46 0 -28 -10 -53
-21 -53 -11 0 -57 49 -71 75 -10 18 -9 18 13 -2 17 -15 29 -19 39 -13 15 9 11
16 -38 69 -15 15 -7 27 23 34 44 11 62 7 72 -16z m-247 -17 c-6 -11 -23 -28
-38 -37 -15 -9 -45 -31 -67 -48 -22 -17 -71 -53 -110 -79 -65 -44 -67 -45 -30
-11 84 78 101 92 135 115 19 13 38 28 41 32 4 7 55 37 77 47 1 0 -2 -8 -8 -19z
m630 -240 c0 -11 -13 -34 -29 -52 -25 -28 -31 -30 -45 -19 -24 20 -20 27 27
60 51 36 47 35 47 11z m-241 8 c-2 -2 -17 -14 -34 -28 l-30 -25 24 28 c14 15
29 27 34 27 6 0 8 -1 6 -2z m1616 -48 c-3 -5 -11 -10 -16 -10 -6 0 -7 5 -4 10
3 6 11 10 16 10 6 0 7 -4 4 -10z m-2439 -105 c-4 -15 -2 -25 4 -25 21 0 -30
-79 -51 -80 -15 0 -18 46 -4 56 8 6 15 21 15 32 0 15 5 20 15 15 9 -3 15 -2
14 3 -2 14 1 24 7 24 3 0 3 -11 0 -25z m775 -151 c1 -93 5 -183 10 -201 10
-31 79 -103 100 -103 5 0 7 -5 3 -11 -4 -8 -29 -10 -69 -7 -81 7 -148 43 -220
119 -46 48 -55 63 -55 94 0 20 7 52 16 71 15 32 202 219 211 211 2 -2 4 -80 4
-173z m500 126 c5 0 9 -6 9 -13 0 -8 -7 -14 -15 -14 -10 0 -15 10 -14 31 1 17
3 23 6 14 2 -10 9 -18 14 -18z m1089 -6 c0 -17 -22 -14 -28 4 -2 7 3 12 12 12
9 0 16 -7 16 -16z m100 7 c0 -25 -15 -41 -38 -41 l-27 0 25 24 c27 26 40 32
40 17z m-150 -17 c0 -8 -5 -12 -10 -9 -6 4 -8 11 -5 16 9 14 15 11 15 -7z
m-1090 -24 c0 -5 -2 -10 -4 -10 -3 0 -8 5 -11 10 -3 6 -1 10 4 10 6 0 11 -4
11 -10z m945 0 c-3 -5 -12 -10 -18 -10 -7 0 -6 4 3 10 19 12 23 12 15 0z m225
-4 c0 -20 -16 -36 -36 -36 -28 0 -30 8 -6 26 16 13 42 19 42 10z m-1070 -32
c0 -28 -15 -25 -23 6 -3 13 0 20 9 20 8 0 14 -10 14 -26z m983 -31 c-7 -2 -19
-2 -25 0 -7 3 -2 5 12 5 14 0 19 -2 13 -5z m7 -33 c0 -5 -11 -10 -24 -10 -14
0 -28 5 -31 10 -4 6 7 10 24 10 17 0 31 -4 31 -10z m-2414 -42 c4 -6 3 -8 -2
-5 -6 3 -10 -9 -11 -27 -1 -18 -8 -46 -17 -62 l-17 -29 6 50 c10 82 22 104 41
73z m2354 2 c12 -8 11 -10 -7 -10 -12 0 -25 5 -28 10 -8 13 15 13 35 0z m35
-20 c3 -5 1 -10 -4 -10 -6 0 -11 5 -11 10 0 6 2 10 4 10 3 0 8 -4 11 -10z
m-595 -36 c0 -8 -4 -14 -10 -14 -5 0 -10 9 -10 21 0 11 5 17 10 14 6 -3 10
-13 10 -21z m814 -75 c-6 -11 -24 -2 -24 11 0 5 7 7 15 4 8 -4 12 -10 9 -15z
m-452 -1 c-9 -9 -15 -9 -24 0 -9 9 -7 12 12 12 19 0 21 -3 12 -12z m-2205 -4
c-3 -3 -12 -4 -19 -1 -8 3 -5 6 6 6 11 1 17 -2 13 -5z m2266 -20 c-4 -11 -1
-15 13 -12 11 2 20 -4 22 -15 3 -15 -1 -18 -20 -15 -12 2 -22 9 -20 16 1 6 -2
12 -8 12 -5 0 -7 7 -4 15 4 8 10 15 15 15 4 0 6 -7 2 -16z m287 -36 c0 -4 -12
-8 -27 -8 -19 0 -24 3 -15 8 17 11 42 11 42 0z m-686 -24 c3 -8 2 -12 -4 -9
-6 3 -10 10 -10 16 0 14 7 11 14 -7z m496 0 c0 -2 -7 -4 -15 -4 -8 0 -15 4
-15 10 0 5 7 7 15 4 8 -4 15 -8 15 -10z m-393 -96 c-3 -8 -6 -5 -6 6 -1 11 2
17 5 13 3 -3 4 -12 1 -19z m473 -18 c0 -5 -2 -10 -4 -10 -3 0 -8 5 -11 10 -3
6 -1 10 4 10 6 0 11 -4 11 -10z m190 -60 c0 -5 -5 -10 -11 -10 -5 0 -7 5 -4
10 3 6 8 10 11 10 2 0 4 -4 4 -10z m-302 -79 c10 -6 8 -10 -10 -14 -36 -10
-42 -8 -28 8 14 17 20 18 38 6z m22 -31 c0 -5 -5 -10 -11 -10 -5 0 -7 5 -4 10
3 6 8 10 11 10 2 0 4 -4 4 -10z m163 -7 c-7 -2 -19 -2 -25 0 -7 3 -2 5 12 5
14 0 19 -2 13 -5z m-763 -45 c0 -13 -23 -5 -28 10 -2 7 2 10 12 6 9 -3 16 -11
16 -16z m610 -20 c11 -12 20 -28 20 -36 0 -10 -7 -7 -20 9 -11 13 -24 30 -30
37 -19 22 8 13 30 -10z m-305 -318 c3 -5 1 -10 -4 -10 -6 0 -11 5 -11 10 0 6
2 10 4 10 3 0 8 -4 11 -10z m585 -104 c0 -12 -14 5 -31 39 -8 16 -6 15 10 -4
12 -13 21 -28 21 -35z m-620 -20 c0 -11 -19 -15 -25 -6 -3 5 1 10 9 10 9 0 16
-2 16 -4z"/>
<path d="M5779 5473 c-13 -16 -12 -17 4 -4 9 7 17 15 17 17 0 8 -8 3 -21 -13z"/>
<path d="M3844 3615 c3 -8 1 -15 -4 -15 -6 0 -10 -8 -10 -17 0 -15 2 -14 15 3
17 23 19 44 4 44 -6 0 -9 -7 -5 -15z"/>
<path d="M5990 5100 c0 -6 7 -10 15 -10 8 0 15 2 15 4 0 2 -7 6 -15 10 -8 3
-15 1 -15 -4z"/>
<path d="M5987 5073 c-13 -13 -7 -21 13 -16 11 3 20 9 20 14 0 10 -24 12 -33
2z"/>
<path d="M6340 4750 c0 -12 8 -12 35 0 18 8 17 9 -7 9 -16 1 -28 -3 -28 -9z"/>
</g>
</svg>
